<svg width="120" height="34" viewBox="0 0 120 34" fill="none" xmlns="http://www.w3.org/2000/svg"><path fill-rule="evenodd" clip-rule="evenodd" d="M1.06186 0H11.3426C18.1481 0 21.7681 4.03747 21.7681 9.95284C21.7681 10.704 21.575 11.8307 21.4302 12.5349C21.3819 12.8166 21.3337 13.0044 21.3337 13.1922C21.3337 13.5678 21.4785 13.8025 22.0094 14.0842C25.2432 15.8682 26.6912 18.7789 26.6912 22.9103C26.6912 28.6848 23.023 32.8631 15.4934 32.8631H1.06186C0.289597 32.8631 0 32.5345 0 31.7833V1.07979C0 0.328631 0.289597 0 1.06186 0ZM8.88192 12.9105H11.3435C12.5984 12.9105 13.5637 12.1593 13.5637 10.7038C13.5637 9.29524 12.5984 8.49707 11.3435 8.49707H8.88192C8.10966 8.49707 7.82007 8.82573 7.82007 9.57695V11.8306C7.82007 12.5818 8.10966 12.9105 8.88192 12.9105ZM8.88192 24.3649H15.3496C17.232 24.3649 18.2938 23.7077 18.2938 22.1585C18.2938 20.6563 17.232 19.9521 15.3496 19.9521H8.88192C8.10967 19.9521 7.82007 20.2808 7.82007 21.0319V23.2852C7.82007 24.0363 8.10967 24.3649 8.88192 24.3649ZM29.685 31.7836V10.4694C29.685 9.71828 29.9746 9.38965 30.7469 9.38965H36.6836C37.4559 9.38965 37.7455 9.71828 37.7455 10.4694V31.7836C37.7455 32.5347 37.4559 32.8634 36.6836 32.8634H30.7469C29.9746 32.8634 29.685 32.5347 29.685 31.7836ZM29.685 5.77362V1.07962C29.685 0.32858 29.9746 0 30.7469 0H36.6836C37.4559 0 37.7455 0.32858 37.7455 1.07962V5.77362C37.7455 6.52466 37.4559 6.85324 36.6836 6.85324H30.7469C29.9746 6.85324 29.685 6.52466 29.685 5.77362ZM44.2585 17.1358H41.5073C40.735 17.1358 40.3972 16.8541 40.3972 16.1029V10.4223C40.3972 9.67115 40.6868 9.38947 41.5073 9.38947H44.2585C45.0307 9.38947 45.3203 9.06084 45.3203 8.30968V1.07979C45.3203 0.328631 45.6099 0 46.3822 0H52.3189C53.0912 0 53.3808 0.328631 53.3808 1.07979V8.30968C53.3808 9.06084 53.6704 9.38947 54.4427 9.38947H59.945C60.7173 9.38947 61.0551 9.67115 61.0551 10.4223V16.1029C61.0551 16.8541 60.7173 17.1358 59.945 17.1358H54.4427C53.6704 17.1358 53.3808 17.4644 53.3808 18.2156V31.7833C53.3808 32.5345 53.0912 32.8631 52.3189 32.8631H46.3822C45.6099 32.8631 45.3203 32.5345 45.3203 31.7833V18.2156C45.3203 17.4644 45.0307 17.1358 44.2585 17.1358ZM73.2679 33.3326C69.5031 33.3326 65.6418 32.2058 62.8907 30.5626C62.408 30.2809 62.3115 29.7645 62.6011 29.2011L64.773 25.2105C65.1592 24.5063 65.7384 24.5532 66.4141 24.9288C68.4413 26.1025 71.1442 26.9476 73.2196 26.9476C74.5228 26.9476 75.4882 26.572 75.4882 25.7269C75.4882 24.9288 74.6194 24.6471 73.3162 24.6471H72.2543C66.5589 24.6471 62.6493 21.8772 62.6493 17.0884C62.6493 11.7363 67.5725 8.91943 72.9783 8.91943C76.55 8.91943 79.2047 9.52976 82.0524 11.0321C82.5833 11.3138 82.7764 11.8302 82.4385 12.3936L79.9769 16.572C79.639 17.1823 78.9151 17.2293 78.2876 16.8537C76.3569 15.68 74.6194 15.3514 73.0266 15.3514C71.5786 15.3514 70.8546 15.8208 70.8546 16.4781C70.8546 17.2762 71.5786 17.6049 73.654 17.6049H74.8607C80.3148 17.6049 83.8382 20.187 83.8382 24.6941C83.8382 30.2809 79.446 33.3326 73.2679 33.3326ZM101.807 20.1404L109.626 31.5017C110.109 32.2059 109.819 32.8631 108.95 32.8631H101.952C101.131 32.8631 100.504 32.7692 99.8278 31.7833L96.063 26.4783C95.6286 25.868 95.1943 25.868 94.6633 26.3844L94.2772 26.76C93.6497 27.3703 93.6015 27.6989 93.6015 28.544V31.8303C93.6015 32.5345 93.3119 32.8631 92.5396 32.8631H86.5546C85.8306 32.8631 85.541 32.5345 85.541 31.8303V1.03284C85.541 0.328631 85.8306 0 86.5546 0H92.5396C93.3119 0 93.6015 0.328631 93.6015 1.03284V14.6945C93.6015 15.4457 94.3255 15.6335 94.8564 15.0231L98.959 10.5162C99.6347 9.76505 100.31 9.38947 101.179 9.38947H108.709C109.626 9.38947 109.867 10.1876 109.24 10.7979L101.952 18.3564C101.372 18.9667 101.228 19.3423 101.807 20.1404ZM111.94 31.7836V10.4694C111.94 9.71828 112.229 9.38965 113.001 9.38965H118.938C119.71 9.38965 120 9.71828 120 10.4694V31.7836C120 32.5347 119.71 32.8634 118.938 32.8634H113.001C112.229 32.8634 111.94 32.5347 111.94 31.7836ZM111.94 5.77362V1.07962C111.94 0.32858 112.229 0 113.001 0H118.938C119.71 0 120 0.32858 120 1.07962V5.77362C120 6.52466 119.71 6.85324 118.938 6.85324H113.001C112.229 6.85324 111.94 6.52466 111.94 5.77362Z" fill="#001442"></path></svg>