<svg xmlns="http://www.w3.org/2000/svg" width="327" height="590" viewBox="0 0 327 590" fill="none">
<path opacity="0.2" d="M326 1L219.842 589M220.082 588.808H-407H220.082ZM-300.264 1.0024L-406.341 588.545L-300.264 1.0024ZM225.515 552.395H-400.426H225.515ZM-261.143 1.0024L-367.219 588.545L-261.143 1.0024ZM232.144 515.674H-393.795H232.144ZM-222.022 1.0024L-328.098 588.545L-222.022 1.0024ZM238.773 478.952H-387.166H238.773ZM-182.9 1.0024L-288.977 588.545L-182.9 1.0024ZM245.405 442.227H-380.536H245.405ZM-143.779 1.0024L-249.855 588.545L-143.779 1.0024ZM252.034 405.506H-373.906H252.034ZM-104.658 1.0024L-210.734 588.545L-104.658 1.0024ZM258.663 368.786H-367.276H258.663ZM-65.5365 1.0024L-171.613 588.545L-65.5365 1.0024ZM265.292 332.065H-360.647H265.292ZM-26.4154 1.0024L-132.492 588.545L-26.4154 1.0024ZM271.925 295.344H-354.017H271.925ZM12.707 1.0024L-93.3705 588.545L12.707 1.0024ZM278.554 258.622H-347.387H278.554ZM51.8281 1.0024L-54.249 588.545L51.8281 1.0024ZM285.183 221.901H-340.757H285.183ZM90.9492 1.0024L-15.1279 588.545L90.9492 1.0024ZM291.812 185.18H-334.128H291.812ZM130.07 1.0024L23.9924 588.545L130.07 1.0024ZM298.44 148.458H-327.498H298.44ZM169.191 1.0024L63.1136 588.545L169.191 1.0024ZM305.073 111.737H-320.868H305.073ZM208.313 1.002L102.235 588.545L208.313 1.002ZM311.702 75.0155H-314.238H311.702ZM247.434 1.002L141.356 588.545L247.434 1.002ZM318.331 38.294H-307.609H318.331ZM286.555 1.0024L180.477 588.545L286.555 1.0024ZM324.96 1.57287H-300.979H324.96Z" stroke="#FF9262" style="stroke: inherit;"/>
</svg>