<svg width="536" height="684" viewBox="0 0 536 684" fill="none" xmlns="http://www.w3.org/2000/svg">
<path opacity="0.2" d="M945 -76L808.139 683M808.448 682.752H0H808.448ZM137.606 -75.9969L0.849967 682.412L137.606 -75.9969ZM815.452 635.749H8.47594H815.452ZM188.042 -75.9969L51.2863 682.412L188.042 -75.9969ZM823.998 588.349H17.0236H823.998ZM238.478 -75.9969L101.722 682.412L238.478 -75.9969ZM832.544 540.949H25.5707H832.544ZM288.914 -75.9969L152.158 682.412L288.914 -75.9969ZM841.096 493.543H34.1178H841.096ZM339.35 -75.9969L202.594 682.412L339.35 -75.9969ZM849.642 446.143H42.6649H849.642ZM389.786 -75.9969L253.03 682.412L389.786 -75.9969ZM858.188 398.744H51.2126H858.188ZM440.222 -75.9969L303.466 682.412L440.222 -75.9969ZM866.734 351.344H59.7597H866.734ZM490.658 -75.9969L353.902 682.412L490.658 -75.9969ZM875.285 303.943H68.3068H875.285ZM541.096 -75.9969L404.338 682.412L541.096 -75.9969ZM883.831 256.543H76.8539H883.831ZM591.531 -75.9969L454.774 682.412L591.531 -75.9969ZM892.377 209.142H85.4015H892.377ZM641.967 -75.9969L505.21 682.412L641.967 -75.9969ZM900.923 161.742H93.9487H900.923ZM692.403 -75.9969L555.645 682.412L692.403 -75.9969ZM909.47 114.341H102.496H909.47ZM742.839 -75.9969L606.081 682.412L742.839 -75.9969ZM918.021 66.9407H111.043H918.021ZM793.275 -75.9974L656.517 682.412L793.275 -75.9974ZM926.567 19.5405H119.591H926.567ZM843.711 -75.9974L706.953 682.412L843.711 -75.9974ZM935.113 -27.8603H128.138H935.113ZM894.146 -75.9969L757.388 682.412L894.146 -75.9969ZM943.659 -75.2605H136.685H943.659Z" stroke="#FF9262"/>
</svg>
