<svg width="96" height="32" viewBox="0 0 96 32" fill="none" xmlns="http://www.w3.org/2000/svg">
<path d="M6.06649 0V24.0334C6.06649 25.8733 6.62288 26.8576 7.99674 26.8576C9.45217 26.8576 9.89924 25.7367 9.89924 24.0334V0H16V23.6397C16 29.2344 13.4497 32 7.90373 32C2.4589 32 0 29.3255 0 23.5892V0H6.06649Z" fill="#FF9262"/>
<path d="M22.5161 5.44165H18V0H33V5.4433H28.4647V32H22.5161V5.44165Z" fill="#FF9262"/>
<path d="M50 8.77793V23.1916C50 29.356 47.1231 32 41.7369 32C36.625 32 34 29.2901 34 23.2525V8.61777C34 2.61848 37.2698 0 42.0224 0C46.7862 0 50 2.57364 50 8.77793ZM39.9911 8.10529V23.9924C39.9911 25.9142 40.6441 26.912 41.9679 26.912C43.3493 26.912 43.975 26.004 43.975 23.9619V8.05884C43.975 6.1178 43.4422 5.12486 41.9519 5.12486C40.6892 5.12486 39.9911 6.04413 39.9911 8.10529Z" fill="#FF9262"/>
<path d="M58.0525 21.9647V24.1148C58.0525 26.1545 58.5785 27.1032 59.9891 27.1032C61.3997 27.1032 61.7497 25.6985 61.7497 24.2331C61.7497 21.304 61.1785 20.4561 57.8967 17.8053C54.2732 14.8442 52.4106 13.0908 52.4106 8.52671C52.4071 4.08578 53.9299 0 60.0226 0C66.4939 0 67.4488 4.25696 67.4488 7.81002V9.59855H61.6055V7.73643C61.6055 5.85352 61.2856 4.92246 60.0628 4.92246C58.9204 4.92246 58.5551 5.86952 58.5551 7.62765C58.5551 9.49617 58.9069 10.4192 61.5704 12.4269C66.303 16.012 68 18.0261 68 23.1373C68 27.9958 66.2777 32 59.887 32C53.7507 32 52 28.4292 52 23.83V21.9647H58.0525Z" fill="#FF9262"/>
<path d="M76 0V32H70V0H76Z" fill="#FF9262"/>
<path d="M84.9317 24.3843L84.1577 32H78L82.4429 0H91.4509L96 32H89.7132L88.8475 24.3843H84.9317ZM88.3338 18.9542C87.887 14.8585 87.2618 8.63009 86.9673 5.56701H86.7301C86.6221 7.7971 85.8758 14.9971 85.4587 18.9542H88.3338Z" fill="#FF9262"/>
</svg>
